<svg width="60" height="60" viewBox="0 0 61 60" fill="none" xmlns="http://www.w3.org/2000/svg">
<path d="M10.6607 41.25C10.6607 43.2391 11.4509 45.1468 12.8574 46.5533C14.264 47.9598 16.1716 48.75 18.1607 48.75C18.1607 50.4076 18.8192 51.9973 19.9913 53.1694C21.1634 54.3415 22.7531 55 24.4107 55C26.0683 55 27.6581 54.3415 28.8302 53.1694C30.0023 51.9973 30.6607 50.4076 30.6607 48.75C30.6607 50.4076 31.3192 51.9973 32.4913 53.1694C33.6634 54.3415 35.2531 55 36.9107 55C38.5683 55 40.1581 54.3415 41.3302 53.1694C42.5023 51.9973 43.1607 50.4076 43.1607 48.75C44.4904 48.7501 45.7961 48.3967 46.9442 47.7261C48.0923 47.0555 49.0415 46.0917 49.6945 44.9334C50.3476 43.7752 50.6809 42.4642 50.6605 41.1347C50.6401 39.8053 50.2665 38.5051 49.5782 37.3675C51.2894 37.0369 52.8321 36.1208 53.9414 34.7767C55.0507 33.4325 55.6574 31.7441 55.6574 30.0013C55.6574 28.2585 55.0507 26.57 53.9414 25.2258C52.8321 23.8817 51.2894 22.9656 49.5782 22.635C50.2672 21.4973 50.6412 20.1969 50.662 18.8671C50.6827 17.5372 50.3495 16.2258 49.6964 15.0672C49.0433 13.9086 48.0939 12.9445 46.9454 12.2737C45.7969 11.6029 44.4907 11.2496 43.1607 11.25C43.1607 9.5924 42.5023 8.00269 41.3302 6.83058C40.1581 5.65848 38.5683 5 36.9107 5C35.2531 5 33.6634 5.65848 32.4913 6.83058C31.3192 8.00269 30.6607 9.5924 30.6607 11.25C30.6607 9.5924 30.0023 8.00269 28.8302 6.83058C27.6581 5.65848 26.0683 5 24.4107 5C22.7531 5 21.1634 5.65848 19.9913 6.83058C18.8192 8.00269 18.1607 9.5924 18.1607 11.25C16.8311 11.2499 15.5253 11.6033 14.3772 12.2739C13.2291 12.9445 12.2799 13.9083 11.6269 15.0666C10.9739 16.2248 10.6406 17.5358 10.661 18.8653C10.6814 20.1948 11.0549 21.4949 11.7432 22.6325C10.0321 22.9631 8.48942 23.8792 7.38011 25.2233C6.2708 26.5675 5.66406 28.256 5.66406 29.9988C5.66406 31.7416 6.2708 33.43 7.38011 34.7742C8.48942 36.1183 10.0321 37.0344 11.7432 37.365C11.0345 38.5369 10.6601 39.8805 10.6607 41.25Z" stroke="#2BA177" stroke-width="2.5" stroke-linecap="round" stroke-linejoin="round"/>
<path d="M19.4141 36.25L24.0191 22.435C24.1347 22.0902 24.3557 21.7905 24.6508 21.5781C24.946 21.3658 25.3004 21.2515 25.6641 21.2515C26.0277 21.2515 26.3821 21.3658 26.6773 21.5781C26.9725 21.7905 27.1935 22.0902 27.3091 22.435L31.9141 36.25M39.4141 21.25V36.25M21.9141 31.25H29.4141" stroke="#2BA177" stroke-width="2.5" stroke-linecap="round" stroke-linejoin="round"/>
</svg>
