<svg width="24" height="24" viewBox="0 0 25 24" fill="none" xmlns="http://www.w3.org/2000/svg">
<path d="M13.2405 3.9324L21.3854 18.2027C21.4605 18.3342 21.5 18.4833 21.5 18.6351C21.5 18.7869 21.4605 18.9361 21.3855 19.0676C21.3104 19.199 21.2025 19.3082 21.0725 19.3841C20.9425 19.46 20.7951 19.5 20.645 19.5H4.35501C4.20492 19.5 4.05748 19.46 3.9275 19.3841C3.79752 19.3082 3.68959 19.199 3.61455 19.0676C3.5395 18.9361 3.5 18.7869 3.5 18.6351C3.5 18.4833 3.53951 18.3342 3.61455 18.2027L11.7595 3.9324C11.8346 3.80093 11.9425 3.69176 12.0725 3.61586C12.2025 3.53996 12.3499 3.5 12.5 3.5C12.6501 3.5 12.7975 3.53996 12.9275 3.61586C13.0575 3.69176 13.1654 3.80093 13.2405 3.9324ZM11.645 15.1757V16.9054H13.355V15.1757H11.645ZM11.645 9.1216V13.4459H13.355V9.1216H11.645Z" fill="currentColor"/>
</svg>
