<svg width="24" height="23" viewBox="0 0 24 23" fill="none" xmlns="http://www.w3.org/2000/svg">
<path d="M9.68495 1.57038C10.6735 -0.280621 13.3255 -0.280621 14.314 1.57038L23.437 18.6374C23.6507 19.0373 23.7573 19.4858 23.7462 19.9391C23.7351 20.3924 23.6067 20.8352 23.3736 21.2241C23.1406 21.6131 22.8107 21.9351 22.4162 22.1587C22.0216 22.3822 21.5759 22.4998 21.1225 22.4999H2.87645C2.42299 22.4998 1.97727 22.3822 1.58275 22.1587C1.18823 21.9351 0.858349 21.6131 0.625263 21.2241C0.392178 20.8352 0.263834 20.3924 0.252739 19.9391C0.241644 19.4858 0.348176 19.0373 0.561955 18.6374L9.68495 1.57038ZM12.3295 2.63088C12.2973 2.57135 12.2497 2.52162 12.1916 2.48695C12.1335 2.45229 12.0671 2.43399 11.9995 2.43399C11.9318 2.43399 11.8654 2.45229 11.8073 2.48695C11.7492 2.52162 11.7016 2.57135 11.6695 2.63088L2.54645 19.6979C2.51589 19.755 2.50063 19.819 2.50216 19.8837C2.50369 19.9485 2.52196 20.0117 2.55519 20.0673C2.58841 20.1229 2.63547 20.1689 2.69177 20.2009C2.74807 20.2329 2.8117 20.2498 2.87645 20.2499H21.1225C21.1872 20.2498 21.2508 20.2329 21.3071 20.2009C21.3634 20.1689 21.4105 20.1229 21.4437 20.0673C21.477 20.0117 21.4952 19.9485 21.4967 19.8837C21.4983 19.819 21.483 19.755 21.4525 19.6979L12.3295 2.63088ZM13.1245 8.62488V12.3749C13.1245 12.6732 13.0059 12.9594 12.7949 13.1704C12.584 13.3814 12.2978 13.4999 11.9995 13.4999C11.7011 13.4999 11.4149 13.3814 11.204 13.1704C10.993 12.9594 10.8745 12.6732 10.8745 12.3749V8.62488C10.8745 8.32651 10.993 8.04036 11.204 7.82938C11.4149 7.6184 11.7011 7.49988 11.9995 7.49988C12.2978 7.49988 12.584 7.6184 12.7949 7.82938C13.0059 8.04036 13.1245 8.32651 13.1245 8.62488ZM13.4995 16.4999C13.4995 16.8977 13.3414 17.2792 13.0601 17.5605C12.7788 17.8418 12.3973 17.9999 11.9995 17.9999C11.6016 17.9999 11.2201 17.8418 10.9388 17.5605C10.6575 17.2792 10.4995 16.8977 10.4995 16.4999C10.4995 16.1021 10.6575 15.7205 10.9388 15.4392C11.2201 15.1579 11.6016 14.9999 11.9995 14.9999C12.3973 14.9999 12.7788 15.1579 13.0601 15.4392C13.3414 15.7205 13.4995 16.1021 13.4995 16.4999Z" fill="currentColor"/>
</svg>
