<svg width="32" height="32" viewBox="0 0 32 32" fill="none" xmlns="http://www.w3.org/2000/svg">
<g clip-path="url(#clip0_357_6120)">
<path d="M21.8004 0C22.0884 1.946 21.2924 3.84 20.2424 5.2C19.1184 6.642 17.1824 7.76 15.3024 7.7C14.9604 5.838 15.8384 3.92 16.9024 2.64C18.0724 1.216 20.0824 0.12 21.8024 0L21.8004 0ZM22.6004 8C24.7404 8 27.0004 9.166 28.6204 11.18C23.3204 14.08 24.1804 21.64 29.5364 23.66C28.9791 24.9907 28.2991 26.2573 27.4964 27.46C26.1744 29.48 24.3164 31.98 21.9964 32C21.0444 32.008 20.4224 31.724 19.7564 31.416C18.9764 31.06 18.1324 30.674 16.6364 30.68C15.1484 30.688 14.2964 31.07 13.4964 31.422C12.8064 31.73 12.1704 32.012 11.2164 32.004C8.89642 31.984 7.13642 29.724 5.81641 27.704C2.11641 22.084 1.73641 15.464 4.01041 11.964C5.63242 9.464 8.19041 8.004 10.5904 8.004C11.8724 8.004 12.9104 8.372 13.8904 8.724C14.7844 9.042 15.6384 9.348 16.6104 9.348C17.5024 9.348 18.2364 9.07 19.0304 8.768C19.9924 8.404 21.0504 8.004 22.5904 8.004L22.6004 8Z" fill="currentColor"/>
</g>
<defs>
<clipPath id="clip0_357_6120">
<rect width="32" height="32" fill="white"/>
</clipPath>
</defs>
</svg>
