<svg width="28" height="28" viewBox="0 0 28 28" fill="none" xmlns="http://www.w3.org/2000/svg">
<path d="M12.5336 14.4781V13.395V3.55932V3.5593C12.5336 3.55898 12.5336 3.55698 12.5316 3.55277C12.5295 3.54829 12.5245 3.53996 12.5133 3.53007C12.4895 3.50905 12.4455 3.48863 12.3889 3.48863C12.3323 3.48863 12.2883 3.50905 12.2645 3.53007C12.2533 3.53996 12.2483 3.54829 12.2462 3.55277C12.2442 3.55698 12.2442 3.55898 12.2442 3.5593V3.55932V13.395V14.4781L11.4322 13.7613L9.14407 11.7415C9.1182 11.722 9.07565 11.7052 9.02335 11.706C8.96819 11.7069 8.92572 11.7269 8.90253 11.7474C8.89159 11.7571 8.88651 11.7653 8.88433 11.7698C8.88223 11.7742 8.88222 11.7763 8.88221 11.7766C8.88221 11.7768 8.88213 11.7785 8.88377 11.7823C8.88526 11.7857 8.8887 11.792 8.8961 11.7997L12.2646 14.7746C12.2646 14.7746 12.2646 14.7746 12.2647 14.7747C12.2885 14.7956 12.3324 14.816 12.3889 14.816C12.4454 14.816 12.4892 14.7956 12.5131 14.7747C12.5131 14.7746 12.5132 14.7746 12.5132 14.7746L15.8905 11.7919C15.8906 11.7918 15.8907 11.7918 15.8908 11.7917C15.9018 11.7819 15.9068 11.7737 15.9088 11.7693C15.9108 11.765 15.9108 11.7631 15.9108 11.7627V11.7627V11.7627C15.9108 11.7624 15.9108 11.7604 15.9088 11.7562C15.9068 11.7517 15.9017 11.7434 15.8905 11.7335L16.2142 11.3675L15.891 11.7339C15.8672 11.7129 15.8232 11.6925 15.7667 11.6925C15.7102 11.6925 15.6663 11.7128 15.6425 11.7338L12.5336 14.4781ZM12.5336 14.4781L13.3456 13.7613L15.6423 11.7339L12.5336 14.4781ZM18.7727 7.53581L18.4493 7.90206L18.7727 7.53581C18.6382 7.41698 18.4673 7.35882 18.3 7.35882H16.6111C16.5545 7.35882 16.5105 7.33841 16.4867 7.31738C16.4755 7.3075 16.4705 7.29917 16.4684 7.29469C16.4664 7.29047 16.4664 7.28848 16.4664 7.28815V7.28814V7.28812C16.4664 7.28779 16.4664 7.2858 16.4684 7.28158C16.4705 7.2771 16.4755 7.26877 16.4867 7.25889C16.5105 7.23786 16.5545 7.21745 16.6111 7.21745H18.3C18.5806 7.21745 18.8393 7.31643 19.0215 7.47732C19.2017 7.63647 19.2891 7.83834 19.2891 8.0339V13.6914V13.9725L19.5321 14.1138C20.76 14.8279 21.7619 15.7953 22.4538 16.9251C23.1452 18.0542 23.5068 19.3121 23.5114 20.5872C23.5114 20.5873 23.5114 20.5875 23.5114 20.5877L23.5114 24.4407C23.5114 24.4408 23.5114 24.4413 23.5112 24.4423C23.5109 24.4434 23.5104 24.445 23.5094 24.4472C23.5073 24.4517 23.5022 24.46 23.491 24.4699C23.4672 24.4909 23.4233 24.5114 23.3667 24.5114C23.31 24.5114 23.2661 24.4909 23.2423 24.4699C23.2311 24.46 23.226 24.4517 23.2239 24.4472C23.2219 24.4429 23.222 24.4409 23.222 24.4407L23.222 20.586L23.222 20.5843C23.218 19.4487 22.9303 18.3304 22.3825 17.3097C21.835 16.2895 21.0423 15.3937 20.0651 14.6833L19.2891 14.1192V15.0786V20.9242C19.2891 20.9248 19.2889 20.926 19.2881 20.9282C19.287 20.931 19.2845 20.9362 19.2787 20.9431C19.2665 20.9574 19.2414 20.9766 19.201 20.9873C19.1605 20.9979 19.1163 20.9967 19.0776 20.9843C19.0397 20.9721 19.0178 20.953 19.0078 20.9401C19.0077 20.9399 19.0075 20.9397 19.0074 20.9395L17.8874 19.43L17.8819 19.4214C17.6136 19.0058 17.1809 18.7171 16.6925 18.599C16.2043 18.4809 15.6818 18.5378 15.2355 18.7625C14.7884 18.9876 14.4416 19.3706 14.295 19.8435C14.1474 20.3193 14.2223 20.8255 14.4927 21.2444L14.5013 21.2578L14.5108 21.2706L16.8359 24.4034C16.8367 24.4053 16.8369 24.4065 16.8369 24.407C16.8371 24.4078 16.8371 24.4086 16.8366 24.4105C16.8358 24.4135 16.8286 24.4332 16.795 24.4528C16.7603 24.4729 16.7107 24.484 16.6587 24.4762C16.6139 24.4695 16.5831 24.4513 16.5658 24.4353L14.237 21.2939C13.9814 20.865 13.9234 20.3741 14.067 19.9154C14.212 19.4522 14.5583 19.038 15.0562 18.7722C15.5549 18.5059 16.1571 18.4157 16.7356 18.5265C17.3141 18.6373 17.8078 18.9369 18.1248 19.3462L18.9997 20.4758V19.0469V8.0339C18.9997 7.83387 18.9092 7.65637 18.7727 7.53581ZM5.75772 20.7411L6.08117 21.1074L5.75771 20.7411C5.73391 20.7621 5.68996 20.7826 5.63333 20.7826C5.5767 20.7826 5.53276 20.7621 5.50895 20.7411L5.1855 21.1074L5.50895 20.7411C5.49776 20.7312 5.4927 20.7229 5.4906 20.7184C5.48858 20.7141 5.48863 20.7121 5.48863 20.7119V8.0339C5.48863 7.83834 5.57608 7.63647 5.75628 7.47732C5.93846 7.31643 6.19719 7.21745 6.47778 7.21745H8.16667C8.2233 7.21745 8.26724 7.23786 8.29105 7.25889C8.30224 7.26877 8.3073 7.2771 8.3094 7.28158C8.31142 7.28589 8.31137 7.28788 8.31137 7.28814V7.28815C8.31137 7.28848 8.31137 7.29047 8.3094 7.29469C8.3073 7.29917 8.30224 7.3075 8.29105 7.31738C8.26724 7.33841 8.2233 7.35882 8.16667 7.35882H6.47778C6.31045 7.35882 6.13961 7.41698 6.00505 7.53581C5.86853 7.65638 5.77803 7.83388 5.77803 8.0339V20.7119V20.7119C5.77803 20.7122 5.77804 20.7142 5.77607 20.7184C5.77396 20.7229 5.76891 20.7312 5.75772 20.7411Z" stroke="currentColor" stroke-width="0.977268"/>
</svg>
