<svg width="28" height="28" viewBox="0 0 28 28" fill="none" xmlns="http://www.w3.org/2000/svg">
<path d="M13.0222 4.90964V13.9998C13.0222 14.1481 12.9555 14.2904 12.8367 14.3953C12.718 14.5002 12.5569 14.5591 12.3889 14.5591C12.2209 14.5591 12.0598 14.5002 11.9411 14.3953C11.8223 14.2904 11.7556 14.1481 11.7556 13.9998V4.90964L9.45867 6.93722C9.33861 7.03602 9.17981 7.08981 9.01574 7.08726C8.85166 7.0847 8.69511 7.026 8.57908 6.92352C8.46304 6.82104 8.39657 6.68278 8.39367 6.53787C8.39078 6.39297 8.45168 6.25273 8.56356 6.1467L11.9413 3.16358C12.0601 3.05883 12.2211 3 12.3889 3C12.5567 3 12.7177 3.05883 12.8364 3.16358L16.2142 6.1467C16.2764 6.1979 16.3264 6.25965 16.361 6.32827C16.3956 6.39688 16.4142 6.47094 16.4157 6.54604C16.4172 6.62115 16.4016 6.69575 16.3697 6.76539C16.3379 6.83504 16.2904 6.89831 16.2303 6.95142C16.1702 7.00453 16.0985 7.04641 16.0197 7.07454C15.9408 7.10267 15.8563 7.11648 15.7713 7.11516C15.6863 7.11383 15.6024 7.0974 15.5247 7.06682C15.447 7.03625 15.3771 6.99218 15.3191 6.93722L13.0222 4.90964ZM19.7778 13.6912V11.0166C19.7778 10.6705 19.6221 10.3385 19.3449 10.0938C19.0678 9.84902 18.6919 9.71152 18.3 9.71152H16.6111C16.4431 9.71152 16.282 9.77045 16.1633 9.87535C16.0445 9.98024 15.9778 10.1225 15.9778 10.2709C15.9778 10.4192 16.0445 10.5615 16.1633 10.6664C16.282 10.7713 16.4431 10.8302 16.6111 10.8302H18.3C18.356 10.8302 18.4097 10.8498 18.4493 10.8848C18.4889 10.9198 18.5111 10.9672 18.5111 11.0166V19.0468C18.1268 18.5122 17.5207 18.1317 16.8227 17.9866C16.1247 17.8416 15.3902 17.9436 14.7763 18.2708C14.1623 18.598 13.7178 19.1244 13.5377 19.7374C13.3577 20.3504 13.4564 21.0013 13.8128 21.5508C13.8128 21.5601 13.8244 21.5685 13.8308 21.5778L16.1804 24.7474C16.2777 24.8599 16.4197 24.9357 16.5777 24.9594C16.7358 24.9832 16.8981 24.9531 17.032 24.8753C17.1659 24.7974 17.2615 24.6777 17.2993 24.5401C17.3372 24.4025 17.3145 24.2574 17.236 24.134L14.9011 20.9793C14.707 20.6785 14.6561 20.322 14.7596 19.9881C14.8631 19.6541 15.1126 19.3702 15.4532 19.1988C15.7937 19.0273 16.1975 18.9823 16.5756 19.0738C16.9537 19.1652 17.2751 19.3856 17.4693 19.6863C17.4747 19.6956 17.4807 19.7046 17.4872 19.7134L18.6167 21.2329C18.6917 21.3328 18.8011 21.4087 18.9287 21.4496C19.0563 21.4904 19.1954 21.494 19.3254 21.4597C19.4555 21.4255 19.5697 21.3552 19.6511 21.2593C19.7325 21.1634 19.777 21.047 19.7778 20.9271V15.0783C20.6987 15.7479 21.4411 16.5886 21.952 17.5406C22.4629 18.4926 22.7297 19.5324 22.7333 20.5859V24.4407C22.7333 24.589 22.8001 24.7313 22.9188 24.8362C23.0376 24.9411 23.1987 25 23.3667 25C23.5346 25 23.6957 24.9411 23.8145 24.8362C23.9333 24.7313 24 24.589 24 24.4407V20.5859C23.9953 19.2182 23.6072 17.8728 22.8705 16.6697C22.1337 15.4667 21.0712 14.4434 19.7778 13.6912ZM8.16667 9.71152H6.47778C6.08585 9.71152 5.70997 9.84902 5.43283 10.0938C5.15569 10.3385 5 10.6705 5 11.0166V20.7118C5 20.8601 5.06673 21.0024 5.1855 21.1073C5.30427 21.2122 5.46536 21.2711 5.63333 21.2711C5.8013 21.2711 5.96239 21.2122 6.08117 21.1073C6.19994 21.0024 6.26667 20.8601 6.26667 20.7118V11.0166C6.26667 10.9672 6.28891 10.9198 6.3285 10.8848C6.36809 10.8498 6.42179 10.8302 6.47778 10.8302H8.16667C8.33464 10.8302 8.49573 10.7713 8.6145 10.6664C8.73327 10.5615 8.8 10.4192 8.8 10.2709C8.8 10.1225 8.73327 9.98024 8.6145 9.87535C8.49573 9.77045 8.33464 9.71152 8.16667 9.71152Z" fill="currentColor"/>
</svg>
