<svg width="24" height="24" viewBox="0 0 24 24" fill="none" xmlns="http://www.w3.org/2000/svg">
<path d="M12.9 20.0999V21.8999H11.1V20.0999H3.9C3.66131 20.0999 3.43239 20.0051 3.2636 19.8363C3.09482 19.6675 3 19.4386 3 19.1999V4.7999C3 4.56121 3.09482 4.33229 3.2636 4.16351C3.43239 3.99473 3.66131 3.8999 3.9 3.8999H9.3C9.81083 3.8993 10.3159 4.00769 10.7815 4.21783C11.2471 4.42797 11.6625 4.73503 12 5.11851C12.3375 4.73503 12.7529 4.42797 13.2185 4.21783C13.6841 4.00769 14.1892 3.8993 14.7 3.8999H20.1C20.3387 3.8999 20.5676 3.99473 20.7364 4.16351C20.9052 4.33229 21 4.56121 21 4.7999V19.1999C21 19.4386 20.9052 19.6675 20.7364 19.8363C20.5676 20.0051 20.3387 20.0999 20.1 20.0999H12.9ZM19.2 18.2999V5.69991H14.7C14.2226 5.69991 13.7648 5.88955 13.4272 6.22711C13.0896 6.56468 12.9 7.02252 12.9 7.49991V18.2999H19.2ZM11.1 18.2999V7.49991C11.1 7.02252 10.9104 6.56468 10.5728 6.22711C10.2352 5.88955 9.77739 5.69991 9.3 5.69991H4.8V18.2999H11.1Z" fill="currentColor"/>
</svg>
