<svg width="24" height="24" viewBox="0 0 24 24" fill="none" xmlns="http://www.w3.org/2000/svg">
<path d="M20.0996 19.2H21.8996V21H2.09961V19.2H3.89961V3.9C3.89961 3.66131 3.99443 3.43239 4.16321 3.2636C4.332 3.09482 4.56091 3 4.79961 3H19.1996C19.4383 3 19.6672 3.09482 19.836 3.2636C20.0048 3.43239 20.0996 3.66131 20.0996 3.9V19.2ZM18.2996 19.2V4.8H5.69961V19.2H18.2996ZM8.39961 11.1H11.0996V12.9H8.39961V11.1ZM8.39961 7.5H11.0996V9.3H8.39961V7.5ZM8.39961 14.7H11.0996V16.5H8.39961V14.7ZM12.8996 14.7H15.5996V16.5H12.8996V14.7ZM12.8996 11.1H15.5996V12.9H12.8996V11.1ZM12.8996 7.5H15.5996V9.3H12.8996V7.5Z" fill="currentColor"/>
</svg>
