<svg width="32" height="32" viewBox="0 0 32 32" fill="none" xmlns="http://www.w3.org/2000/svg">
<path d="M16 0C7.17785 0 0 7.17785 0 16C0 24.8222 7.17785 32 16 32C24.8222 32 32 24.8222 32 16C32 7.17785 24.8222 0 16 0ZM16 2.46154C23.4917 2.46154 29.5385 8.50831 29.5385 16C29.5385 23.4917 23.4917 29.5385 16 29.5385C8.50831 29.5385 2.46154 23.4917 2.46154 16C2.46154 8.50831 8.50831 2.46154 16 2.46154ZM14.7692 8.61539V14.7692H8.61539V17.2308H14.7692V23.3846H17.2308V17.2308H23.3846V14.7692H17.2308V8.61539H14.7692Z" fill="#092018"/>
</svg>
