<svg width="20" height="20" viewBox="0 0 20 20" fill="none" xmlns="http://www.w3.org/2000/svg">
<path d="M6.67188 3.33332V13.3333C6.67188 13.7754 6.84747 14.1993 7.16003 14.5118C7.47259 14.8244 7.89651 15 8.33854 15H15.0052C15.4472 15 15.8712 14.8244 16.1837 14.5118C16.4963 14.1993 16.6719 13.7754 16.6719 13.3333V6.03499C16.6718 5.81296 16.6275 5.59317 16.5413 5.38853C16.4552 5.18389 16.329 4.99853 16.1702 4.84332L13.4077 2.14166C13.0963 1.8372 12.6782 1.66671 12.2427 1.66666H8.33854C7.89651 1.66666 7.47259 1.84225 7.16003 2.15481C6.84747 2.46737 6.67188 2.8913 6.67188 3.33332Z" stroke="#737373" stroke-width="1.5" stroke-linecap="round" stroke-linejoin="round"/>
<path d="M13.3359 15V16.6666C13.3359 17.1087 13.1603 17.5326 12.8478 17.8452C12.5352 18.1577 12.1113 18.3333 11.6693 18.3333H5.0026C4.56058 18.3333 4.13665 18.1577 3.82409 17.8452C3.51153 17.5326 3.33594 17.1087 3.33594 16.6666V7.49998C3.33594 7.05795 3.51153 6.63403 3.82409 6.32147C4.13665 6.00891 4.56058 5.83331 5.0026 5.83331H6.66927" stroke="#737373" stroke-width="1.5" stroke-linecap="round" stroke-linejoin="round"/>
</svg>
