<svg width="32" height="32" viewBox="0 0 32 32" fill="none" xmlns="http://www.w3.org/2000/svg">
<path d="M15.9974 2.66663C17.7484 2.66663 19.4822 3.0115 21.0998 3.68157C22.7175 4.35163 24.1874 5.33375 25.4255 6.57187C26.6636 7.80998 27.6457 9.27984 28.3158 10.8975C28.9859 12.5152 29.3307 14.249 29.3307 16C29.3307 19.5362 27.926 22.9276 25.4255 25.428C22.925 27.9285 19.5336 29.3333 15.9974 29.3333C14.2464 29.3333 12.5126 28.9884 10.8949 28.3184C9.27727 27.6483 7.80742 26.6662 6.56931 25.428C4.06882 22.9276 2.66406 19.5362 2.66406 16C2.66406 12.4637 4.06882 9.07235 6.56931 6.57187C9.06979 4.07138 12.4612 2.66663 15.9974 2.66663ZM15.9974 14C15.467 14 14.9583 14.2107 14.5832 14.5857C14.2081 14.9608 13.9974 15.4695 13.9974 16C13.9974 16.5304 14.2081 17.0391 14.5832 17.4142C14.9583 17.7892 15.467 18 15.9974 18C16.5278 18 17.0365 17.7892 17.4116 17.4142C17.7867 17.0391 17.9974 16.5304 17.9974 16C17.9974 15.4695 17.7867 14.9608 17.4116 14.5857C17.0365 14.2107 16.5278 14 15.9974 14ZM8.66406 14C8.13363 14 7.62492 14.2107 7.24985 14.5857C6.87478 14.9608 6.66406 15.4695 6.66406 16C6.66406 16.5304 6.87478 17.0391 7.24985 17.4142C7.62492 17.7892 8.13363 18 8.66406 18C9.1945 18 9.7032 17.7892 10.0783 17.4142C10.4533 17.0391 10.6641 16.5304 10.6641 16C10.6641 15.4695 10.4533 14.9608 10.0783 14.5857C9.7032 14.2107 9.1945 14 8.66406 14ZM23.3307 14C22.8003 14 22.2916 14.2107 21.9165 14.5857C21.5414 14.9608 21.3307 15.4695 21.3307 16C21.3307 16.5304 21.5414 17.0391 21.9165 17.4142C22.2916 17.7892 22.8003 18 23.3307 18C23.8612 18 24.3699 17.7892 24.7449 17.4142C25.12 17.0391 25.3307 16.5304 25.3307 16C25.3307 15.4695 25.12 14.9608 24.7449 14.5857C24.3699 14.2107 23.8612 14 23.3307 14Z" fill="#2BA177"/>
</svg>
