<svg width="24" height="24" viewBox="0 0 24 24" fill="none" xmlns="http://www.w3.org/2000/svg">
<path d="M6.85659 20.7552V18.7348H5.32402C5.03002 18.7348 4.78316 18.6306 4.58345 18.4223C4.38373 18.214 4.2843 17.9554 4.28516 17.6465V6.36452C4.28516 6.04484 4.38459 5.78174 4.58345 5.57521C4.7823 5.36868 5.02916 5.26542 5.32402 5.26542H6.85659V3.24501C6.85659 3.05375 6.9183 2.89391 7.04173 2.7655C7.16516 2.63709 7.31816 2.57244 7.50073 2.57154C7.6833 2.57064 7.83588 2.6353 7.95845 2.7655C8.08102 2.89571 8.1423 3.05554 8.1423 3.24501V5.26542H9.67488C9.96888 5.26542 10.2157 5.36958 10.4154 5.57791C10.6152 5.78623 10.7146 6.04485 10.7137 6.35374V17.637C10.7137 17.9567 10.6143 18.2194 10.4154 18.425C10.2166 18.6306 9.96973 18.7339 9.67488 18.7348H8.1423V20.7552C8.1423 20.9465 8.08059 21.1063 7.95716 21.2347C7.83373 21.3631 7.68073 21.4278 7.49816 21.4287C7.31559 21.4296 7.16302 21.3649 7.04045 21.2347C6.91788 21.1045 6.85659 20.9447 6.85659 20.7552ZM5.57088 17.3879H9.42802V6.61235H5.57088V17.3879ZM15.8566 20.7552V15.2126H14.324C14.03 15.2126 13.7832 15.1084 13.5834 14.9001C13.3846 14.6908 13.2852 14.4322 13.2852 14.1242V8.78901C13.2852 8.48011 13.3846 8.2215 13.5834 8.01317C13.7832 7.80484 14.03 7.70068 14.324 7.70068H15.8566V3.24501C15.8566 3.05375 15.9183 2.89391 16.0417 2.7655C16.1652 2.63709 16.3182 2.57244 16.5007 2.57154C16.6833 2.57064 16.8359 2.6353 16.9584 2.7655C17.081 2.89571 17.1423 3.05554 17.1423 3.24501V7.70068H18.6749C18.9697 7.70068 19.2166 7.80484 19.4154 8.01317C19.6143 8.2215 19.7137 8.48011 19.7137 8.78901V14.1242C19.7137 14.4322 19.6143 14.6908 19.4154 14.9001C19.2166 15.1093 18.9697 15.2134 18.6749 15.2126H17.1423V20.7552C17.1423 20.9465 17.0806 21.1063 16.9572 21.2347C16.8337 21.3631 16.6807 21.4278 16.4982 21.4287C16.3156 21.4296 16.163 21.3649 16.0404 21.2347C15.9179 21.1045 15.8566 20.9447 15.8566 20.7552ZM14.5709 13.8643H18.428V9.04762H14.5709V13.8643Z" fill="currentColor"/>
</svg>
