<svg width="24" height="24" viewBox="0 0 24 24" fill="none" xmlns="http://www.w3.org/2000/svg">
<path d="M10.2004 6.59999V8.39999H5.70039V18.3H15.6004V13.8H17.4004V19.2C17.4004 19.4387 17.3056 19.6676 17.1368 19.8364C16.968 20.0052 16.7391 20.1 16.5004 20.1H4.80039C4.5617 20.1 4.33278 20.0052 4.16399 19.8364C3.99521 19.6676 3.90039 19.4387 3.90039 19.2V7.49999C3.90039 7.2613 3.99521 7.03238 4.16399 6.8636C4.33278 6.69482 4.5617 6.59999 4.80039 6.59999H10.2004ZM20.1004 3.89999V11.1H18.3004V6.97169L11.2867 13.9863L10.0141 12.7137L17.0269 5.69999H12.9004V3.89999H20.1004Z" fill="#4190F0"/>
</svg>
