<svg width="24" height="24" viewBox="0 0 25 24" fill="none" xmlns="http://www.w3.org/2000/svg">
<path d="M12.4998 3.89844C17.3526 3.89844 21.39 7.39044 22.2369 11.9984C21.3909 16.6064 17.3526 20.0984 12.4998 20.0984C7.647 20.0984 3.6096 16.6064 2.7627 11.9984C3.6087 7.39044 7.647 3.89844 12.4998 3.89844ZM12.4998 18.2984C14.3353 18.298 16.1163 17.6746 17.5514 16.5301C18.9864 15.3856 19.9904 13.7879 20.3991 11.9984C19.9889 10.2104 18.9842 8.61444 17.5494 7.47146C16.1145 6.32848 14.3343 5.70611 12.4998 5.70611C10.6653 5.70611 8.88512 6.32848 7.45023 7.47146C6.01535 8.61444 5.01069 10.2104 4.6005 11.9984C5.00918 13.7879 6.0132 15.3856 7.44823 16.5301C8.88325 17.6746 10.6643 18.298 12.4998 18.2984ZM12.4998 16.0484C11.4257 16.0484 10.3955 15.6217 9.63601 14.8622C8.87649 14.1027 8.4498 13.0726 8.4498 11.9984C8.4498 10.9243 8.87649 9.89418 9.63601 9.13466C10.3955 8.37513 11.4257 7.94844 12.4998 7.94844C13.5739 7.94844 14.6041 8.37513 15.3636 9.13466C16.1231 9.89418 16.5498 10.9243 16.5498 11.9984C16.5498 13.0726 16.1231 14.1027 15.3636 14.8622C14.6041 15.6217 13.5739 16.0484 12.4998 16.0484ZM12.4998 14.2484C13.0965 14.2484 13.6688 14.0114 14.0908 13.5894C14.5127 13.1675 14.7498 12.5952 14.7498 11.9984C14.7498 11.4017 14.5127 10.8294 14.0908 10.4074C13.6688 9.98549 13.0965 9.74844 12.4998 9.74844C11.9031 9.74844 11.3308 9.98549 10.9088 10.4074C10.4868 10.8294 10.2498 11.4017 10.2498 11.9984C10.2498 12.5952 10.4868 13.1675 10.9088 13.5894C11.3308 14.0114 11.9031 14.2484 12.4998 14.2484Z" fill="currentColor"/>
</svg>
