<svg width="20" height="20" viewBox="0 0 21 20" fill="none" xmlns="http://www.w3.org/2000/svg">
<path d="M4.88706 5.45043L2.54181 3.10593L3.60306 2.04468L18.4523 16.8947L17.3911 17.9552L14.9086 15.4727C13.5895 16.3093 12.0591 16.7524 10.4971 16.7499C6.45306 16.7499 3.08856 13.8399 2.38281 9.99993C2.70533 8.25297 3.58403 6.6571 4.88781 5.45043H4.88706ZM12.5648 13.1289L11.4668 12.0309C11.0468 12.2319 10.5749 12.2976 10.116 12.219C9.65713 12.1405 9.23392 11.9215 8.90472 11.5923C8.57552 11.2631 8.35654 10.8399 8.27797 10.381C8.19941 9.9221 8.26513 9.45014 8.46606 9.03018L7.36806 7.93218C6.89085 8.65329 6.67752 9.51718 6.76418 10.3775C6.85085 11.2379 7.2322 12.0419 7.84365 12.6533C8.4551 13.2648 9.25908 13.6461 10.1194 13.7328C10.9798 13.8195 11.8437 13.6061 12.5648 13.1289ZM7.47756 3.81993C8.41281 3.45243 9.43206 3.24993 10.4971 3.24993C14.5411 3.24993 17.9056 6.15993 18.6113 9.99993C18.3815 11.2492 17.865 12.4281 17.1023 13.4439L14.2073 10.5489C14.2933 9.96964 14.2424 9.37826 14.0588 8.82217C13.8751 8.26608 13.5637 7.76074 13.1496 7.34663C12.7355 6.93252 12.2302 6.62116 11.6741 6.43748C11.118 6.25381 10.5266 6.20293 9.94731 6.28893L7.47756 3.82068V3.81993Z" fill="#737373"/>
</svg>
