<svg width="24" height="24" viewBox="0 0 24 24" fill="none" xmlns="http://www.w3.org/2000/svg">
<path fillRule="evenodd" clipRule="evenodd" d="M12 2C6.47715 2 2 6.47715 2 12C2 17.1285 5.86055 21.3552 10.8341 21.9328V14.9231H8.80078V12.6154L10.8341 12.6154V10.8846C10.8341 9.15385 12.0007 8 13.6189 8C14.5199 8 15.5007 8.15865 15.5007 8.15865V10.1101H14.3341C13.3103 10.1101 13.1674 10.8346 13.1674 11.4615V12.6154H15.4007L15.0007 14.9231H13.1674V21.9326C18.1402 21.3544 22 17.1279 22 12C22 6.47715 17.5228 2 12 2Z" fill="currentColor"/>
</svg>
