<svg width="24" height="24" viewBox="0 0 24 24" fill="none" xmlns="http://www.w3.org/2000/svg">
    <path
        d="M14.7004 4.8H5.70039V19.2H18.3004V8.4H14.7004V4.8ZM3.90039 3.8928C3.90039 3.3996 4.30269 3 4.79949 3H15.6004L20.1004 7.5V20.0937C20.1012 20.2119 20.0788 20.3291 20.0343 20.4386C19.9898 20.5481 19.9242 20.6478 19.8412 20.7319C19.7583 20.8161 19.6595 20.8831 19.5506 20.9291C19.4418 20.9751 19.3249 20.9992 19.2067 21H4.79409C4.55773 20.9984 4.33151 20.9038 4.16429 20.7367C3.99707 20.5697 3.90228 20.3436 3.90039 20.1072V3.8928ZM12.0004 11.55C11.4037 11.55 10.8314 11.3129 10.4094 10.891C9.98744 10.469 9.75039 9.89674 9.75039 9.3C9.75039 8.70326 9.98744 8.13097 10.4094 7.70901C10.8314 7.28705 11.4037 7.05 12.0004 7.05C12.5971 7.05 13.1694 7.28705 13.5914 7.70901C14.0133 8.13097 14.2504 8.70326 14.2504 9.3C14.2504 9.89674 14.0133 10.469 13.5914 10.891C13.1694 11.3129 12.5971 11.55 12.0004 11.55ZM7.97469 16.5C8.08379 15.5086 8.55491 14.5922 9.29776 13.9267C10.0406 13.2611 11.003 12.893 12.0004 12.893C12.9978 12.893 13.9602 13.2611 14.703 13.9267C15.4459 14.5922 15.917 15.5086 16.0261 16.5H7.97469Z"
        fill="currentColor" />
</svg>