<svg width="24" height="24" viewBox="0 0 24 24" fill="none" xmlns="http://www.w3.org/2000/svg">
<path d="M12.3726 5.69999H20.1C20.3387 5.69999 20.5676 5.79482 20.7364 5.9636C20.9052 6.13238 21 6.3613 21 6.59999V19.2C21 19.4387 20.9052 19.6676 20.7364 19.8364C20.5676 20.0052 20.3387 20.1 20.1 20.1H3.9C3.66131 20.1 3.43239 20.0052 3.2636 19.8364C3.09482 19.6676 3 19.4387 3 19.2V4.79999C3 4.5613 3.09482 4.33238 3.2636 4.1636C3.43239 3.99482 3.66131 3.89999 3.9 3.89999H10.5726L12.3726 5.69999ZM4.8 5.69999V18.3H19.2V7.49999H11.6274L9.8274 5.69999H4.8ZM11.1 9.29999H12.9V16.5H11.1V9.29999ZM14.7 12H16.5V16.5H14.7V12ZM7.5 13.8H9.3V16.5H7.5V13.8Z" fill="currentColor"/>
</svg>
