<svg width="152" height="30" viewBox="0 0 152 30" fill="none" xmlns="http://www.w3.org/2000/svg">
<path d="M24.1991 14.4142C24.1991 12.5789 23.757 10.8469 22.9737 9.31958H21.3148V12.4689H17.4496V9.31958H15.1567V12.4689H11.2913V9.31958H8.99838V12.4689H5.13312V9.31958H3.20129C2.41791 10.8469 1.97583 12.5789 1.97583 14.4142C1.97583 19.31 5.12201 23.465 9.49523 24.9636V18.6052L13.0867 16.4026L16.6789 18.6052V24.9645C21.0522 23.4659 24.1991 19.3099 24.1991 14.4142Z" fill="#2BA177"/>
<path d="M22.4735 8.39514C22.4735 8.39514 20.9338 2.65064 11.7437 1.58838V6.83439C11.7437 6.83439 18.6725 4.05053 22.4735 8.39514Z" fill="#2BA177"/>
<path fillRule="evenodd" clipRule="evenodd" d="M104.642 7.22301L101.754 5.625V20.5396C101.754 21.2336 101.853 21.7924 102.051 22.2159C102.25 22.6392 102.538 22.967 102.915 23.1981C103.293 23.4452 103.745 23.6105 104.274 23.6954C104.803 23.7803 105.397 23.8226 106.059 23.8226V21.603C105.51 21.5561 105.138 21.4524 104.94 21.2906C104.742 21.1284 104.642 20.8241 104.642 20.3772V7.22301ZM31.1475 5.62511V23.6831L31.149 23.6824H34.0372V22.619C34.395 22.9583 34.7638 23.2435 35.1413 23.4746C35.5182 23.7057 36.0655 23.8212 36.7834 23.8212C37.9728 23.8212 38.8124 23.452 39.3036 22.7119C39.4734 22.45 39.5959 22.1267 39.6717 21.7412C39.7468 21.3559 39.7847 20.8395 39.7847 20.1922V15.7302C39.7847 14.8834 39.7569 14.2587 39.7001 13.858C39.6433 13.4573 39.52 13.1332 39.332 12.8867C39.0865 12.5789 38.7701 12.3243 38.3832 12.1239C37.9962 11.9236 37.4532 11.8234 36.755 11.8234C36.1886 11.8234 35.6829 11.9272 35.2397 12.1357C34.796 12.3441 34.4132 12.641 34.0926 13.0258H34.0357V7.22313L31.1475 5.62511ZM36.5983 14.5974C36.7965 14.8754 36.8957 15.1986 36.8957 15.5686V19.8682C36.8957 20.3459 36.7827 20.7312 36.556 21.0239C36.3293 21.3171 35.97 21.4634 35.4796 21.4634C35.0451 21.4634 34.696 21.3289 34.4323 21.059C34.1677 20.7899 34.0357 20.4388 34.0357 20.0072V15.4531C34.0357 15.083 34.172 14.7787 34.4461 14.5396C34.7193 14.3005 35.0641 14.1813 35.4796 14.1813C36.0269 14.1813 36.4001 14.3203 36.5983 14.5974ZM43.8788 7.22271V9.58061H46.7671V7.22271H43.8788ZM43.8788 11.9619V23.6826H46.7671V11.9619H43.8788ZM50.862 11.9623V6.80398L53.7502 8.402V11.9623H55.5344V13.8119H53.7502V20.3078C53.7502 20.585 53.783 20.8014 53.8494 20.955C53.9149 21.1094 54.0236 21.2249 54.1751 21.3016C54.326 21.3792 54.5096 21.4253 54.7276 21.4406C54.9448 21.456 55.2129 21.464 55.5344 21.464V23.6838H54.3449C53.684 23.6838 53.1315 23.5989 52.6884 23.4293C52.2446 23.2595 51.8904 23.0437 51.6265 22.782C51.362 22.5201 51.1687 22.2232 51.0456 21.8919C50.9224 21.5606 50.8612 21.241 50.8612 20.9324V13.8119H49.4167V11.9623H50.862ZM61.798 21.1625C61.5436 20.9628 61.4161 20.6776 61.4161 20.3075L61.4154 15.5215C61.4154 15.0746 61.5422 14.7396 61.7973 14.5159C62.0517 14.2929 62.397 14.1809 62.8307 14.1809C63.2644 14.1809 63.6091 14.2929 63.8642 14.5159C64.1193 14.739 64.2468 15.09 64.2468 15.5676H67.1351C67.1351 14.4581 66.7576 13.5564 66.0026 12.863C65.625 12.5397 65.1673 12.2852 64.6294 12.1002C64.0916 11.9152 63.4918 11.823 62.8315 11.823C61.9248 11.823 61.1553 11.9773 60.5233 12.2852C59.8907 12.5931 59.4046 13.002 59.065 13.5103C58.8572 13.8189 58.7152 14.1729 58.64 14.5736C58.565 14.9751 58.5271 15.414 58.5271 15.8916V19.7524C58.5271 20.2308 58.5643 20.6695 58.64 21.0702C58.7152 21.4711 58.8572 21.8258 59.065 22.1338C59.4046 22.642 59.8907 23.0509 60.5233 23.3587C61.1559 23.6674 61.9256 23.821 62.8315 23.821C63.4926 23.821 64.0865 23.7287 64.6156 23.5437C65.144 23.3587 65.5973 23.105 65.9749 22.781C66.7489 22.149 67.1358 21.3168 67.1358 20.2841H64.2476C64.2097 20.5466 64.1011 20.8085 63.9218 21.0702C63.7417 21.3321 63.3788 21.463 62.8315 21.463C62.397 21.463 62.0531 21.3629 61.798 21.1625ZM76.0167 23.6831V22.4808H75.9598C75.5823 22.9123 75.1997 23.2435 74.8127 23.4746C74.4257 23.7057 73.8828 23.8214 73.1846 23.8214C72.8449 23.8214 72.5002 23.7789 72.1511 23.6941C71.8012 23.6092 71.4667 23.4513 71.146 23.2201C70.8246 23.0044 70.5652 22.6921 70.367 22.284C70.1687 21.8759 70.0696 21.3479 70.0696 20.7006C70.0696 20.0534 70.1352 19.4559 70.2678 18.9556C70.3997 18.4546 70.6453 18.0349 71.0039 17.6955C71.3435 17.3715 71.8063 17.1294 72.3915 16.967C72.9769 16.8054 73.7224 16.7243 74.6283 16.7243H74.9395C75.0525 16.7243 75.1567 16.7323 75.2508 16.7476C75.3447 16.763 75.4585 16.771 75.5904 16.771C75.7222 16.771 75.8636 16.7791 76.0152 16.7945V15.5694C76.0152 15.1686 75.911 14.8374 75.704 14.5755C75.4963 14.3136 75.1188 14.1827 74.5715 14.1827C74.194 14.1827 73.8492 14.283 73.538 14.4834C73.2268 14.6838 73.0235 14.977 72.9294 15.3617H70.1264C70.2015 14.3136 70.6358 13.466 71.4288 12.8188C71.8063 12.5109 72.2597 12.2681 72.7881 12.0904C73.3165 11.9134 73.9112 11.8241 74.5722 11.8241C75.1764 11.8241 75.7426 11.9017 76.271 12.0553C76.7994 12.2096 77.2623 12.4407 77.6587 12.7486C78.0362 13.0573 78.338 13.4419 78.5646 13.9041C78.7912 14.3664 78.9042 14.9061 78.9042 15.5226V23.6831H76.0167ZM76.0167 18.6434C75.6953 18.5972 75.4314 18.5739 75.2237 18.5739C74.6006 18.5739 74.0672 18.6937 73.624 18.9322C73.1802 19.1714 72.9585 19.6065 72.9585 20.2384C72.9585 20.6853 73.0905 21.0472 73.3551 21.3252C73.6189 21.6024 73.9869 21.7414 74.4592 21.7414C74.9314 21.7414 75.3324 21.6104 75.6063 21.3486C75.8797 21.0867 76.0167 20.7167 76.0167 20.2391V18.6434ZM87.5159 14.3426C87.8082 14.543 87.9642 14.8436 87.9831 15.2444H90.7017C90.7017 14.7669 90.5982 14.3164 90.3905 13.8921C90.182 13.4686 89.8992 13.103 89.5406 12.7944C89.1821 12.4865 88.7521 12.2473 88.2521 12.0777C87.7521 11.908 87.2092 11.8231 86.6239 11.8231C86.0387 11.8231 85.4913 11.9043 84.9819 12.0659C84.4724 12.2276 84.0286 12.4631 83.6511 12.771C83.2546 13.0789 82.9435 13.4453 82.7167 13.8688C82.4901 14.2929 82.3771 14.7515 82.3771 15.2444C82.3771 16.0299 82.6366 16.6969 83.1563 17.244C83.6752 17.791 84.388 18.2035 85.2939 18.4806L86.6815 18.8969C87.2289 19.0665 87.6064 19.2669 87.8141 19.498C88.021 19.7291 88.1253 20.0063 88.1253 20.3302C88.1253 20.7311 87.9598 21.0434 87.6297 21.2664C87.2988 21.4902 86.9256 21.6014 86.511 21.6014C85.9629 21.6014 85.581 21.4624 85.3637 21.1853C85.1466 20.908 85.0103 20.6075 84.9535 20.2835H82.235C82.254 20.8693 82.3859 21.3813 82.6315 21.8208C82.8763 22.2596 83.1977 22.626 83.5942 22.9185C84.3872 23.5198 85.3689 23.8204 86.5394 23.8204C87.1624 23.8204 87.7383 23.7281 88.2667 23.5431C88.7951 23.3581 89.2483 23.1044 89.6259 22.7804C90.0035 22.4564 90.3008 22.0834 90.5179 21.6591C90.7352 21.235 90.8437 20.7771 90.8437 20.2835C90.8437 19.5894 90.6411 18.9502 90.2352 18.3644C89.8292 17.7792 89.088 17.3171 88.0123 16.9777L86.3134 16.4226C85.7653 16.2537 85.4258 16.065 85.2939 15.8566C85.1612 15.6489 85.0956 15.4367 85.0956 15.221C85.0956 14.9131 85.218 14.6396 85.4637 14.4004C85.7085 14.162 86.0583 14.0421 86.511 14.0421C86.8877 14.0421 87.223 14.1423 87.5159 14.3426ZM94.4303 11.9621V6.80387L97.3186 8.40189V11.9621H99.1027V13.8118H97.3186V20.3076C97.3186 20.5849 97.3513 20.8014 97.4177 20.9549C97.4833 21.1093 97.5919 21.2247 97.7434 21.3016C97.8943 21.3791 98.0779 21.4251 98.2958 21.4405C98.5131 21.4559 98.7812 21.4639 99.1027 21.4639V23.6836H97.9132C97.2523 23.6836 96.6998 23.5987 96.2567 23.4291C95.8129 23.2594 95.4587 23.0436 95.1948 22.7819C94.9303 22.52 94.737 22.2231 94.6139 21.8917C94.4907 21.5605 94.4295 21.2409 94.4295 20.9323V13.8118H92.985V11.9621H94.4303ZM117.261 18.7125H111.541V20.3076C111.541 20.6776 111.668 20.9629 111.924 21.1626C112.179 21.363 112.523 21.4631 112.957 21.4631C113.504 21.4631 113.867 21.3323 114.047 21.0704C114.227 20.8086 114.335 20.5468 114.373 20.2843H117.261C117.261 21.3169 116.874 22.1491 116.1 22.7811C115.723 23.105 115.27 23.3589 114.741 23.5439C114.213 23.7289 113.618 23.821 112.957 23.821C112.051 23.821 111.281 23.6675 110.649 23.3589C110.016 23.0509 109.53 22.6421 109.19 22.1338C108.983 21.8259 108.841 21.4713 108.766 21.0704C108.69 20.6696 108.653 20.2309 108.653 19.7525V15.8916C108.653 15.4141 108.691 14.9753 108.766 14.5738C108.841 14.173 108.983 13.819 109.19 13.5104C109.53 13.0021 110.016 12.5933 110.649 12.2854C111.281 11.9775 112.05 11.8231 112.957 11.8231C113.617 11.8231 114.217 11.9153 114.755 12.1003C115.293 12.2854 115.751 12.5399 116.129 12.8631C116.884 13.5565 117.261 14.4275 117.261 15.4755V18.7125ZM111.541 16.8629H114.372V15.5224C114.372 15.0755 114.245 14.7405 113.99 14.5168C113.735 14.2936 113.391 14.1817 112.957 14.1817C112.523 14.1817 112.178 14.2936 111.924 14.5168C111.668 14.7405 111.541 15.0755 111.541 15.5224V16.8629ZM128.852 5.625L130.629 8.7609H123.577V13.4652H129.609V16.5961H123.577V23.9101H119.904V5.625H128.852ZM148.349 23.9101L142.686 14.7808L148.376 5.625H144.361L140.48 12.3076L136.338 5.625H132.297L137.987 14.7808L132.323 23.9101H136.566L140.193 17.2801L144.309 23.9101H148.349Z" fill="#2BA177"/>
</svg>
