<svg width="32" height="32" viewBox="0 0 32 32" fill="none" xmlns="http://www.w3.org/2000/svg">
<path d="M16 28C9.3724 28 4 22.6276 4 16C4 9.3724 9.3724 4 16 4C22.6276 4 28 9.3724 28 16C28 22.6276 22.6276 28 16 28ZM13.252 25.2004C12.0681 22.6892 11.3822 19.9723 11.2324 17.2H6.4744C6.7079 19.0467 7.47271 20.7858 8.67588 22.206C9.87906 23.6263 11.4688 24.6665 13.252 25.2004ZM13.636 17.2C13.8172 20.1268 14.6536 22.876 16 25.3024C17.3828 22.8119 18.1905 20.0434 18.364 17.2H13.636ZM25.5256 17.2H20.7676C20.6178 19.9723 19.9319 22.6892 18.748 25.2004C20.5312 24.6665 22.1209 23.6263 23.3241 22.206C24.5273 20.7858 25.2921 19.0467 25.5256 17.2ZM6.4744 14.8H11.2324C11.3822 12.0277 12.0681 9.31082 13.252 6.7996C11.4688 7.33346 9.87906 8.3737 8.67588 9.79395C7.47271 11.2142 6.7079 12.9533 6.4744 14.8ZM13.6372 14.8H18.3628C18.1897 11.9567 17.3824 9.18824 16 6.6976C14.6172 9.18814 13.8095 11.9566 13.636 14.8H13.6372ZM18.748 6.7996C19.9319 9.31082 20.6178 12.0277 20.7676 14.8H25.5256C25.2921 12.9533 24.5273 11.2142 23.3241 9.79395C22.1209 8.3737 20.5312 7.33346 18.748 6.7996Z" fill="currentColor"/>
</svg>
