<svg width="24" height="24" viewBox="0 0 24 24" fill="none" xmlns="http://www.w3.org/2000/svg">
<path d="M14.4241 12.0003C14.4241 10.6613 13.3387 9.57602 11.9999 9.57602C10.661 9.57602 9.57565 10.6613 9.57565 12.0003C9.57565 13.3391 10.661 14.4245 11.9999 14.4245C13.3387 14.4245 14.4241 13.3391 14.4241 12.0003Z" fill="currentColor"/>
<path fillRule="evenodd" clipRule="evenodd" d="M11.7575 6.03807C11.6104 6.03801 11.4742 6.03795 11.3475 6.03815V6.03633C9.99202 6.03784 9.73202 6.04693 9.06111 6.07724C8.35202 6.10981 7.96702 6.22799 7.71065 6.32799C7.37126 6.46011 7.12884 6.61769 6.87429 6.87224C6.61974 7.12678 6.46187 7.36921 6.33005 7.7086C6.2305 7.96496 6.11202 8.34981 6.07959 9.0589C6.04474 9.82557 6.03777 10.0547 6.03777 11.9968C6.03777 13.9389 6.04474 14.1692 6.07959 14.9359C6.11187 15.645 6.2305 16.0298 6.33005 16.2859C6.46217 16.6254 6.61974 16.8672 6.87429 17.1218C7.12884 17.3763 7.37126 17.5339 7.71065 17.6657C7.96717 17.7653 8.35202 17.8837 9.06111 17.9165C9.82778 17.9513 10.0579 17.9589 11.9999 17.9589C13.9417 17.9589 14.172 17.9513 14.9387 17.9165C15.6478 17.8841 16.0329 17.7659 16.289 17.6659C16.6285 17.5341 16.8702 17.3765 17.1247 17.1219C17.3793 16.8675 17.5372 16.6259 17.669 16.2865C17.7685 16.0304 17.887 15.6456 17.9194 14.9365C17.9543 14.1698 17.9619 13.9395 17.9619 11.9986C17.9619 10.0577 17.9543 9.82739 17.9194 9.06072C17.8872 8.35163 17.7685 7.96678 17.669 7.71072C17.5369 7.37133 17.3793 7.1289 17.1247 6.87436C16.8704 6.61981 16.6284 6.46224 16.289 6.33042C16.0326 6.23087 15.6478 6.11239 14.9387 6.07996C14.1719 6.04511 13.9417 6.03815 11.9999 6.03815C11.916 6.03815 11.8352 6.03811 11.7575 6.03807ZM15.0093 8.11814C15.0093 7.63618 15.4002 7.24572 15.882 7.24572C16.3638 7.24572 16.7547 7.63633 16.7547 8.11814C16.7547 8.59996 16.3638 8.99087 15.882 8.99087C15.4002 8.99087 15.0093 8.59996 15.0093 8.11814ZM8.26505 12.0003C8.26505 9.93774 9.93724 8.2655 11.9997 8.26542C14.0623 8.26542 15.7341 9.93769 15.7341 12.0003C15.7341 14.0628 14.0625 15.7344 11.9999 15.7344C9.93732 15.7344 8.26505 14.0628 8.26505 12.0003Z" fill="currentColor"/>
<path fillRule="evenodd" clipRule="evenodd" d="M6.37392 2.024C6.61126 2.00431 7.83226 2 12.0072 2H15.2619C17.6075 2.00408 17.741 2.02341 18.1866 2.08796L18.2125 2.0917C19.1766 2.23079 19.9857 2.61544 20.6472 3.24749C21.0179 3.60429 21.2733 3.95324 21.5032 4.42051C21.7835 4.99133 21.9212 5.53138 21.9842 6.33452C21.9978 6.50684 22.0039 9.24923 22.0039 11.9935C22.0039 14.7372 21.9982 17.4847 21.9847 17.657C21.9224 18.4474 21.7847 18.9921 21.5132 19.5521C20.9733 20.666 19.9812 21.4784 18.783 21.7877C18.3484 21.9 17.9554 21.9528 17.2786 21.9846C17.0371 21.9969 14.5115 22 11.9858 22C9.46011 22 6.93597 21.9923 6.68832 21.9815C6.10382 21.9538 5.64852 21.8954 5.23629 21.7892C4.04574 21.4815 3.03517 20.6568 2.50603 19.5583C2.22916 18.9844 2.09842 18.4597 2.0292 17.6258C2.0092 17.3888 2.00459 16.1687 2.00459 11.9961C2.00459 11.4848 2.00439 11.0209 2.0042 10.5992C2.00388 9.86126 2.00361 9.25257 2.00459 8.7458C2.00852 6.39693 2.02762 6.26515 2.09258 5.81689C2.09369 5.80921 2.09482 5.80143 2.09596 5.79355C2.23516 4.83009 2.61971 4.01956 3.2542 3.36073C3.6026 2.99947 3.95561 2.74176 4.40322 2.51943C4.98403 2.23017 5.51716 2.09524 6.37392 2.024ZM9.00111 4.77148C9.77687 4.73618 10.0247 4.72754 11.9999 4.72754H11.9976C13.9734 4.72754 14.2204 4.73618 14.9961 4.77148C15.7704 4.80693 16.2991 4.92951 16.7628 5.10936C17.2416 5.29496 17.6461 5.54345 18.0507 5.94799C18.4552 6.35224 18.7037 6.75799 18.89 7.23633C19.0688 7.69875 19.1916 8.22724 19.2279 9.00148C19.2628 9.77724 19.2719 10.0251 19.2719 12.0003C19.2719 13.9754 19.2628 14.2227 19.2279 14.9984C19.1916 15.7724 19.0688 16.301 18.89 16.7636C18.7037 17.2418 18.4552 17.6475 18.0507 18.0518C17.6466 18.4563 17.2414 18.7054 16.7632 18.8912C16.3005 19.071 15.7714 19.1936 14.9972 19.2291C14.2214 19.2644 13.9743 19.273 11.999 19.273C10.024 19.273 9.77626 19.2644 9.0005 19.2291C8.22641 19.1936 7.69777 19.071 7.23505 18.8912C6.75702 18.7054 6.35126 18.4563 5.94717 18.0518C5.54277 17.6475 5.29429 17.2418 5.10838 16.7634C4.92868 16.301 4.80611 15.7725 4.7705 14.9983C4.73535 14.2225 4.72656 13.9754 4.72656 12.0003C4.72656 10.0251 4.73565 9.77708 4.77035 9.00133C4.8052 8.22739 4.92793 7.69875 5.10823 7.23618C5.29459 6.75799 5.54308 6.35224 5.94762 5.94799C6.35187 5.5436 6.75762 5.29511 7.23596 5.10936C7.69838 4.92951 8.22687 4.80693 9.00111 4.77148Z" fill="currentColor"/>
</svg>
