<svg width="32" height="32" viewBox="0 0 32 32" fill="none" xmlns="http://www.w3.org/2000/svg">
<path fillRule="evenodd" clipRule="evenodd" d="M9.4252 4.83912C16.4434 0.856672 28.134 4.16235 29.2517 12.8978C29.9352 18.7294 25.4742 22.3923 21.2468 25.3388C20.3528 25.9836 19.1647 26.8188 17.9039 27.5594C16.9074 28.2121 14.9359 29.1358 14.5808 27.2601C14.4736 26.6354 14.6079 26.0873 14.7439 25.5319C14.7607 25.4634 14.7775 25.3948 14.7939 25.3258C14.8116 25.2516 14.8345 25.1167 14.7906 25.0481C14.7668 25.0114 14.6746 24.9182 14.3322 24.8504L14.1866 24.8216C3.31896 23.3796 -1.12548 10.8037 9.4252 4.83912ZM13.4431 16.6287C13.4232 17.4337 12.2408 17.4361 12.2201 16.6287V11.9384C12.2399 11.1334 13.4224 11.1308 13.4431 11.9384V16.6287ZM11.1128 17.2401H8.87811C8.54043 17.2401 8.26659 16.9663 8.26659 16.6287V11.9384C8.28675 11.1336 9.46863 11.1306 9.48935 11.9384V16.0171H11.1122C11.9178 16.0367 11.9198 17.22 11.1128 17.2401ZM17.864 16.9879C18.1899 17.4661 18.9879 17.2023 18.9703 16.6287L18.9705 11.9384C18.9504 11.1308 17.7671 11.1334 17.7478 11.9384V14.7459L15.5458 11.7135C15.2141 11.2364 14.4284 11.4934 14.4396 12.0728V16.6289C14.4597 17.4364 15.643 17.4336 15.6623 16.6289V13.9555L17.864 16.9879ZM23.4253 17.247H20.3991C20.0614 17.247 19.7876 16.9731 19.7876 16.6355C19.788 16.0076 19.7878 15.0382 19.7877 14.0942V14.0922C19.7874 13.2795 19.7873 12.4857 19.7876 11.9452C19.7876 11.6075 20.0614 11.3337 20.3991 11.3337H23.3315C24.1376 11.3547 24.1385 12.5357 23.3315 12.5564H21.0106V13.6787H22.8939C23.6997 13.6988 23.7006 14.8813 22.8939 14.9014H21.0106V16.0237H23.4253C24.2303 16.0433 24.2326 17.2268 23.4253 17.247Z" fill="#1ED760"/>
</svg>
