<svg width="24" height="24" viewBox="0 0 24 24" fill="none" xmlns="http://www.w3.org/2000/svg">
<path fillRule="evenodd" clipRule="evenodd" d="M6.36223 2.43325C12.3778 -0.980273 22.3983 1.85317 23.3564 9.34069C23.9422 14.3392 20.1185 17.4788 16.495 20.0044C15.7287 20.5571 14.7104 21.273 13.6297 21.9078C12.7755 22.4672 11.0857 23.259 10.7813 21.6512C10.6895 21.1158 10.8045 20.646 10.9212 20.1699C10.9355 20.1112 10.9499 20.0524 10.964 19.9933C10.9791 19.9297 10.9988 19.814 10.9611 19.7552C10.9407 19.7238 10.8617 19.6439 10.5682 19.5858L10.4434 19.5611C1.12831 18.3251 -2.68121 7.54573 6.36223 2.43325ZM9.80613 12.5386C9.78909 13.2286 8.77557 13.2307 8.75781 12.5386V8.51831C8.77485 7.82831 9.78837 7.82615 9.80613 8.51831V12.5386ZM7.80874 13.0627H5.8933C5.60386 13.0627 5.36914 12.828 5.36914 12.5386V8.51831C5.38642 7.82855 6.39946 7.82591 6.41722 8.51831V12.0144H7.80826C8.49874 12.0312 8.50042 13.0454 7.80874 13.0627ZM13.5955 12.8465C13.8748 13.2564 14.5588 13.0303 14.5437 12.5386L14.5439 8.51831C14.5267 7.82615 13.5124 7.82831 13.4959 8.51831V10.9248L11.6085 8.32559C11.3241 7.91663 10.6507 8.13695 10.6603 8.63351V12.5388C10.6775 13.2309 11.6918 13.2285 11.7083 12.5388V10.2473L13.5955 12.8465ZM18.3623 13.0686H15.7684C15.479 13.0686 15.2443 12.8338 15.2443 12.5444C15.2446 12.0062 15.2445 11.1753 15.2443 10.3662V10.3645C15.2442 9.66785 15.244 8.98748 15.2443 8.52416C15.2443 8.23472 15.479 8 15.7684 8H18.2819C18.9729 8.018 18.9736 9.03032 18.2819 9.04808H16.2926V10.01H17.9068C18.5975 10.0273 18.5983 11.0408 17.9068 11.0581H16.2926V12.02H18.3623C19.0523 12.0368 19.0543 13.0513 18.3623 13.0686Z" fill="currentColor"/>
</svg>
