
<svg width="32" height="32" viewBox="0 0 32 32" fill="none" xmlns="http://www.w3.org/2000/svg">
<path d="M26.2667 23.4667C26.1333 23.2 26 22.9334 26 22.6667C26 22.1334 25.7333 21.7334 25.3333 21.3334C25.2 21.2 24.9333 21.0667 24.8 21.0667C25.6 18.6667 24.4 16.2667 23.0667 14.5334C22 12.9334 20.4 11.7334 20.5333 9.60003C20.5333 7.06669 20.8 2.40003 16.1333 2.80003C11.3333 3.06669 12.6667 8.00003 12.5333 9.73336C12.5333 11.2 11.8667 12.6667 10.8 13.8667C10.5333 14.1334 10.2667 14.5334 10.1333 14.8C8.8 16.4 8.13333 18.5334 8.13333 20.5334C7.86667 20.8 7.6 21.0667 7.46667 21.3334C7.33333 21.4667 7.2 21.6 7.2 21.7334C7.06667 21.8667 6.8 22 6.53333 22.1334C6 22.2667 5.6 22.5334 5.33333 23.0667C5.2 23.4667 5.06667 24 5.2 24.5334C5.33333 24.8 5.33333 25.0667 5.2 25.4667C4.93333 26 4.93333 26.6667 5.2 27.3334C5.6 27.8667 6.26667 28 7.2 28.1334C7.86667 28.1334 8.66667 28.4 9.33333 28.6667C10 29.0667 10.8 29.3334 11.6 29.3334C12 29.3334 12.5333 29.2 12.9333 29.0667C13.3333 28.8 13.6 28.5334 13.7333 28.1334C14.2667 28.1334 15.0667 27.8667 16 27.8667C16.8 27.8667 17.6 28.1334 18.6667 28C18.6667 28.1334 18.6667 28.2667 18.8 28.4C19.0667 29.0667 19.7333 29.6 20.5333 29.7334H20.8C21.8667 29.6 22.9333 29.0667 23.6 28.2667C24.1333 27.7334 24.8 27.3334 25.4667 27.0667C26.2667 26.6667 26.8 26.4 26.9333 25.7334C27.0667 24.8 26.8 24.2667 26.2667 23.4667ZM17.0667 6.40003C17.8667 6.53336 18.5333 7.20003 18.4 8.00003C18.4 8.40003 18.2667 8.80003 18 9.20003H17.8667C17.6 9.06669 17.4667 9.06669 17.3333 8.93336C17.4667 8.80003 17.4667 8.53336 17.6 8.26669C17.6 7.73336 17.3333 7.33336 17.0667 7.33336C16.6667 7.33336 16.4 7.73336 16.4 8.26669V8.40003C16.2667 8.26669 16 8.26669 15.8667 8.13336V8.00003C15.7333 7.33336 16.2667 6.53336 17.0667 6.40003ZM16.6667 9.06669C16.8 9.20003 17.0667 9.33336 17.2 9.33336C17.3333 9.33336 17.6 9.46669 17.7333 9.60003C18 9.73336 18.2667 9.86669 18.2667 10.2667C18.2667 10.6667 17.8667 11.0667 17.0667 11.3334C16.8 11.4667 16.6667 11.4667 16.5333 11.6C16.1333 11.8667 15.7333 12 15.2 12C14.8 12 14.4 11.7334 14.1333 11.4667C14 11.3334 13.8667 11.2 13.6 11.0667C13.4667 10.9334 13.2 10.6667 13.0667 10.2667C13.0667 10.1334 13.2 10 13.3333 9.86669C13.7333 9.60003 13.8667 9.46669 14 9.33336L14.1333 9.20003C14.4 8.80003 14.9333 8.53336 15.4667 8.53336C15.8667 8.66669 16.2667 8.80003 16.6667 9.06669ZM13.8667 6.66669C14.4 6.66669 14.8 7.20003 14.9333 8.13336V8.40003C14.8 8.40003 14.5333 8.53336 14.4 8.66669V8.40003C14.4 8.00003 14.1333 7.60003 13.8667 7.73336C13.6 7.73336 13.4667 8.13336 13.4667 8.53336C13.4667 8.80003 13.6 8.93336 13.7333 9.06669C13.7333 9.06669 13.6 9.20003 13.4667 9.20003C13.2 8.93336 12.9333 8.53336 12.9333 8.13336C12.9333 7.33336 13.3333 6.66669 13.8667 6.66669ZM12.5333 28.1334C11.6 28.5334 10.4 28.4 9.6 27.8667C8.8 27.4667 8.13333 27.3334 7.2 27.3334C6.53333 27.2 5.86667 27.2 5.73333 26.9334C5.6 26.6667 5.6 26.2667 5.86667 25.6C6 25.2 6 24.8 5.86667 24.4C5.73333 24 5.73333 23.7334 5.86667 23.3334C6 22.9334 6.26667 22.8 6.66667 22.6667C7.06667 22.5334 7.33333 22.4 7.6 22.1334C7.73333 22 7.86667 21.8667 8 21.6C8.4 21.0667 8.66667 20.8 9.06667 20.8C9.86667 20.9334 10.5333 22.1334 11.0667 23.3334C11.3333 23.7334 11.6 24.2667 12 24.6667C12.5333 25.3334 13.2 26.2667 13.2 26.8C13.2 27.4667 12.9333 27.8667 12.5333 28.1334ZM19.0667 25.2C19.0667 25.3334 19.0667 25.3334 18.9333 25.4667C17.3333 26.6667 15.2 26.8 13.4667 25.8667L12.6667 24.6667C13.8667 24.5334 13.6 22.9334 11.0667 21.3334C8.4 19.6 10.2667 16.4 11.2 14.9334C11.3333 14.8 11.3333 14.9334 10.8 16C10.4 16.8 9.6 18.8 10.6667 20.2667C10.6667 19.2 10.9333 18.1334 11.3333 17.0667C12.2667 15.3334 12.9333 13.3334 13.3333 11.3334C13.4667 11.4667 13.4667 11.4667 13.6 11.4667C13.7333 11.6 13.8667 11.7334 14 11.7334C14.2667 12.1334 14.8 12.2667 15.2 12.2667H15.3333C15.8667 12.2667 16.4 12.1334 16.8 11.7334C16.9333 11.6 17.0667 11.4667 17.3333 11.4667C17.7333 11.3334 18.1333 11.0667 18.5333 10.6667C19.0667 12.4 19.6 14 20.4 15.4667C20.9333 16.5334 21.3333 17.6 21.6 18.8C22 18.8 22.5333 18.9334 22.9333 19.2C24 19.7334 24.4 20.1334 24.2667 20.8H24C24 20.4 23.7333 20 22.8 19.6C21.8667 19.2 21.0667 19.2 20.8 20.1334C20.6667 20.1334 20.5333 20.2667 20.4 20.2667C19.3333 20.8 19.3333 22.2667 19.2 23.7334C19.3333 24.2667 19.2 24.6667 19.0667 25.2ZM25.2 26C24.4 26.2667 23.7333 26.8 23.2 27.4667C22.6667 28.2667 21.7333 28.8 20.6667 28.6667C20.1333 28.6667 19.6 28.2667 19.4667 27.7334C19.3333 26.9334 19.3333 26.1334 19.7333 25.3334C19.8667 24.8 20 24.4 20.1333 23.8667C20.2667 22.2667 20.2667 21.3334 20.9333 20.9334C20.9333 21.6 21.3333 22 21.8667 22.2667C22.5333 22.2667 23.2 22.1334 23.7333 21.6H24C24.4 21.6 24.6667 21.6 24.9333 21.8667C25.2 22.1334 25.3333 22.5334 25.3333 22.8C25.3333 23.2 25.6 23.6 25.7333 24C26.4 24.6667 26.4 25.0667 26.4 25.2C26.2667 25.4667 25.7333 25.7334 25.2 26ZM13.2 10C13.0667 10 13.0667 10 13.0667 10.1334C13.0667 10.1334 13.0667 10.2667 13.2 10.2667C13.3333 10.2667 13.3333 10.4 13.3333 10.4C13.7333 10.9334 14.4 11.2 15.2 11.3334C15.8667 11.2 16.5333 11.0667 17.2 10.5334L18 10.1334C18.1333 10.1334 18.1333 10 18.1333 10C18.1333 9.86669 18.1333 9.86669 18 9.86669C17.7333 10 17.3333 10.1334 17.0667 10.2667C16.5333 10.6667 15.8667 10.9334 15.2 10.9334C14.5333 10.9334 14 10.5334 13.6 10.1334C13.4667 10.1334 13.3333 10 13.2 10Z" fill="currentColor"/>
</svg>
