<svg width="24" height="24" viewBox="0 0 24 24" fill="none" xmlns="http://www.w3.org/2000/svg">
<path d="M8.3999 4.8001H20.0999V6.6001H8.3999V4.8001ZM5.2499 7.0501C4.89186 7.0501 4.54848 6.90787 4.29531 6.65469C4.04213 6.40152 3.8999 6.05814 3.8999 5.7001C3.8999 5.34206 4.04213 4.99868 4.29531 4.7455C4.54848 4.49233 4.89186 4.3501 5.2499 4.3501C5.60794 4.3501 5.95132 4.49233 6.2045 4.7455C6.45767 4.99868 6.5999 5.34206 6.5999 5.7001C6.5999 6.05814 6.45767 6.40152 6.2045 6.65469C5.95132 6.90787 5.60794 7.0501 5.2499 7.0501ZM5.2499 13.3501C4.89186 13.3501 4.54848 13.2079 4.29531 12.9547C4.04213 12.7015 3.8999 12.3581 3.8999 12.0001C3.8999 11.6421 4.04213 11.2987 4.29531 11.0455C4.54848 10.7923 4.89186 10.6501 5.2499 10.6501C5.60794 10.6501 5.95132 10.7923 6.2045 11.0455C6.45767 11.2987 6.5999 11.6421 6.5999 12.0001C6.5999 12.3581 6.45767 12.7015 6.2045 12.9547C5.95132 13.2079 5.60794 13.3501 5.2499 13.3501ZM5.2499 19.5601C4.89186 19.5601 4.54848 19.4179 4.29531 19.1647C4.04213 18.9115 3.8999 18.5681 3.8999 18.2101C3.8999 17.8521 4.04213 17.5087 4.29531 17.2555C4.54848 17.0023 4.89186 16.8601 5.2499 16.8601C5.60794 16.8601 5.95132 17.0023 6.2045 17.2555C6.45767 17.5087 6.5999 17.8521 6.5999 18.2101C6.5999 18.5681 6.45767 18.9115 6.2045 19.1647C5.95132 19.4179 5.60794 19.5601 5.2499 19.5601ZM8.3999 11.1001H20.0999V12.9001H8.3999V11.1001ZM8.3999 17.4001H20.0999V19.2001H8.3999V17.4001Z" fill="currentColor"/>
</svg>
