<svg width="24" height="24" viewBox="0 0 25 24" fill="none" xmlns="http://www.w3.org/2000/svg">
<path d="M17.8984 8.4001H19.6984C19.9371 8.4001 20.1661 8.49492 20.3348 8.6637C20.5036 8.83248 20.5984 9.0614 20.5984 9.3001V20.1001C20.5984 20.3388 20.5036 20.5677 20.3348 20.7365C20.1661 20.9053 19.9371 21.0001 19.6984 21.0001H5.29844C5.05974 21.0001 4.83082 20.9053 4.66204 20.7365C4.49326 20.5677 4.39844 20.3388 4.39844 20.1001V9.3001C4.39844 9.0614 4.49326 8.83248 4.66204 8.6637C4.83082 8.49492 5.05974 8.4001 5.29844 8.4001H7.09844V7.5001C7.09844 6.06793 7.66736 4.69442 8.68006 3.68172C9.69276 2.66902 11.0663 2.1001 12.4984 2.1001C13.9306 2.1001 15.3041 2.66902 16.3168 3.68172C17.3295 4.69442 17.8984 6.06793 17.8984 7.5001V8.4001ZM16.0984 8.4001V7.5001C16.0984 6.54532 15.7192 5.62964 15.044 4.95451C14.3689 4.27938 13.4532 3.9001 12.4984 3.9001C11.5437 3.9001 10.628 4.27938 9.95285 4.95451C9.27772 5.62964 8.89844 6.54532 8.89844 7.5001V8.4001H16.0984ZM11.5984 13.8001V15.6001H13.3984V13.8001H11.5984ZM7.99844 13.8001V15.6001H9.79844V13.8001H7.99844ZM15.1984 13.8001V15.6001H16.9984V13.8001H15.1984Z" fill="currentColor"/>
</svg>
