<svg width="24" height="24" viewBox="0 0 24 24" fill="none" xmlns="http://www.w3.org/2000/svg">
<path fillRule="evenodd" clipRule="evenodd" d="M12 2C8.13477 2 5 5.13379 5 9V15C4.44727 15 4 15.4473 4 16C4 16.5527 4.44727 17 5 17H19C19.5527 17 20 16.5527 20 16C20 15.4473 19.5527 15 19 15V9C19 5.13379 15.8652 2 12 2ZM9 19C9 19.3936 9.07812 19.7842 9.22852 20.1484C9.37891 20.5117 9.59961 20.8428 9.87891 21.1211C10.0469 21.2881 10.2344 21.4355 10.4355 21.5586C10.5684 21.6406 10.707 21.7119 10.8516 21.7715C11.2168 21.9229 11.6055 22 12 22C12.3945 22 12.7832 21.9229 13.1484 21.7715C13.5117 21.6211 13.8418 21.3994 14.1211 21.1211C14.4004 20.8428 14.6211 20.5117 14.7715 20.1484C14.9219 19.7842 15 19.3936 15 19H12H9ZM16 10C15.4477 10 15 10.4477 15 11V13C15 13.5523 15.4477 14 16 14C16.5523 14 17 13.5523 17 13V11C17 10.4477 16.5523 10 16 10Z" fill="currentColor"/>
</svg>
