<svg width="32" height="32" viewBox="0 0 32 32" fill="none" xmlns="http://www.w3.org/2000/svg">
<path d="M23.9974 16C23.9974 16.7333 24.5974 17.3333 25.3307 17.3333H27.9974C28.7307 17.3333 29.3307 16.7333 29.3307 16C29.3307 15.2666 28.7307 14.6666 27.9974 14.6666H25.3307C24.5974 14.6666 23.9974 15.2666 23.9974 16ZM22.1174 22.4266C22.0127 22.5632 21.9364 22.7194 21.8931 22.8859C21.8498 23.0525 21.8403 23.226 21.8651 23.3963C21.89 23.5665 21.9487 23.7301 22.0379 23.8773C22.127 24.0245 22.2447 24.1524 22.3841 24.2533C23.0907 24.7733 23.8374 25.3333 24.5441 25.8666C25.1307 26.3066 25.9574 26.1866 26.3841 25.6C26.3841 25.5866 26.3974 25.5866 26.3974 25.5733C26.5017 25.4354 26.5776 25.2781 26.6207 25.1106C26.6638 24.9431 26.6733 24.7688 26.6485 24.5976C26.6236 24.4264 26.5651 24.2619 26.4762 24.1136C26.3874 23.9652 26.2699 23.8359 26.1307 23.7333C25.4241 23.2 24.6774 22.64 23.9841 22.12C23.8441 22.0165 23.685 21.9416 23.516 21.8997C23.3471 21.8578 23.1715 21.8496 22.9993 21.8756C22.8272 21.9016 22.6618 21.9613 22.5128 22.0513C22.3638 22.1413 22.2339 22.2598 22.1307 22.4C22.1307 22.4133 22.1174 22.4266 22.1174 22.4266ZM26.4107 6.41331C26.4107 6.39998 26.3974 6.39998 26.3974 6.38664C26.2948 6.24744 26.1655 6.13 26.0172 6.04113C25.8688 5.95226 25.7043 5.89372 25.5331 5.86892C25.3619 5.84411 25.1876 5.85353 25.0201 5.89663C24.8526 5.93972 24.6953 6.01564 24.5574 6.11998C23.8507 6.65331 23.0907 7.21331 22.3974 7.74664C21.8107 8.18664 21.7041 9.01331 22.1441 9.58664C22.1441 9.59998 22.1574 9.59998 22.1574 9.61331C22.5974 10.2 23.4107 10.32 23.9974 9.87998C24.7041 9.35998 25.4507 8.78664 26.1574 8.25331C26.7307 7.82664 26.8374 6.99998 26.4107 6.41331ZM10.6641 12H5.33073C3.86406 12 2.66406 13.2 2.66406 14.6666V17.3333C2.66406 18.8 3.86406 20 5.33073 20H6.66406V24C6.66406 24.7333 7.26406 25.3333 7.9974 25.3333C8.73073 25.3333 9.33073 24.7333 9.33073 24V20H10.6641L17.3307 24V7.99998L10.6641 12ZM20.6641 16C20.6641 14.2266 19.8907 12.6266 18.6641 11.5333V20.4533C19.8907 19.3733 20.6641 17.7733 20.6641 16Z" fill="currentColor"/>
</svg>
