<svg width="24" height="24" viewBox="0 0 24 24" fill="none" xmlns="http://www.w3.org/2000/svg">
<path fillRule="evenodd" clipRule="evenodd" d="M22 12C22 17.5228 17.5228 22 12 22C6.47715 22 2 17.5228 2 12C2 6.47715 6.47715 2 12 2C17.5228 2 22 6.47715 22 12ZM12.3576 9.38204C11.385 9.7866 9.44107 10.6239 6.52587 11.894C6.05248 12.0823 5.8045 12.2664 5.78193 12.4465C5.74378 12.7509 6.12488 12.8707 6.64385 13.0339C6.71444 13.0561 6.78758 13.0791 6.86257 13.1034C7.37315 13.2694 8.05998 13.4636 8.41703 13.4713C8.74091 13.4783 9.10239 13.3448 9.50149 13.0707C12.2253 11.2321 13.6313 10.3028 13.7195 10.2827C13.7818 10.2686 13.8681 10.2508 13.9266 10.3028C13.9851 10.3548 13.9793 10.4532 13.9731 10.4796C13.9354 10.6406 12.4394 12.0313 11.6652 12.7511C11.4239 12.9755 11.2527 13.1346 11.2177 13.171C11.1393 13.2524 11.0594 13.3294 10.9826 13.4034C10.5083 13.8607 10.1525 14.2036 11.0023 14.7636C11.4107 15.0327 11.7374 15.2552 12.0634 15.4772C12.4194 15.7197 12.7745 15.9615 13.234 16.2627C13.351 16.3394 13.4628 16.4191 13.5717 16.4967C13.986 16.7921 14.3582 17.0575 14.8181 17.0151C15.0853 16.9905 15.3613 16.7393 15.5015 15.9899C15.8328 14.2189 16.484 10.3816 16.6345 8.80041C16.6477 8.66187 16.6311 8.48457 16.6177 8.40674C16.6044 8.32891 16.5766 8.21802 16.4754 8.13593C16.3556 8.03871 16.1706 8.01821 16.0879 8.0196C15.7118 8.02629 15.1347 8.22694 12.3576 9.38204Z" fill="currentColor"/>
</svg>
