<svg width="24" height="24" viewBox="0 0 24 24" fill="none" xmlns="http://www.w3.org/2000/svg">
<path d="M9.75 12.375L7.875 14.25L9.75 16.125L11.625 14.25L9.75 12.375ZM14.25 4.875C11.6793 4.875 9.57333 6.86478 9.38822 9.38822C6.86478 9.57334 4.875 11.6793 4.875 14.25C4.875 16.9424 7.05761 19.125 9.75 19.125C12.3207 19.125 14.4267 17.1353 14.6118 14.6118C17.1353 14.4267 19.125 12.3207 19.125 9.75C19.125 7.05761 16.9424 4.875 14.25 4.875ZM14.4925 13.1164C14.0681 11.3344 12.6656 9.93184 10.8836 9.50749C11.0079 7.75672 12.4675 6.375 14.25 6.375C16.114 6.375 17.625 7.88604 17.625 9.75C17.625 11.5325 16.2433 12.9921 14.4925 13.1164ZM13.125 14.25C13.125 16.114 11.614 17.625 9.75 17.625C7.88604 17.625 6.375 16.114 6.375 14.25C6.375 12.386 7.88604 10.875 9.75 10.875C11.614 10.875 13.125 12.386 13.125 14.25ZM5.25 8.25C5.25 6.59314 6.59314 5.25 8.25 5.25H9.375V6.75H8.25C7.42157 6.75 6.75 7.42157 6.75 8.25V9.375H5.25V8.25ZM17.25 15.75V14.625H18.75V15.75C18.75 17.4068 17.4068 18.75 15.75 18.75H14.625V17.25H15.75C16.5785 17.25 17.25 16.5785 17.25 15.75Z" fill="currentColor"/>
</svg>
