<svg width="24" height="24" viewBox="0 0 24 24" fill="none" xmlns="http://www.w3.org/2000/svg">
<path d="M2.09961 14.25C2.09906 13.2559 2.35199 12.2781 2.83451 11.409C3.31702 10.5399 4.01319 9.80813 4.85721 9.28293C5.07997 7.54601 5.92803 5.94979 7.24268 4.79297C8.55732 3.63616 10.2485 2.99805 11.9996 2.99805C13.7508 2.99805 15.4419 3.63616 16.7565 4.79297C18.0712 5.94979 18.9193 7.54601 19.142 9.28293C20.1889 9.93425 21.0033 10.8997 21.4688 12.0414C21.9343 13.1831 22.0272 14.4427 21.7341 15.6404C21.4411 16.838 20.7772 17.9125 19.8371 18.7103C18.8971 19.5081 17.729 19.9885 16.4996 20.0829L7.49961 20.1C4.47921 19.8534 2.09961 17.3298 2.09961 14.25ZM16.3628 18.2883C17.2141 18.2229 18.0228 17.8901 18.6737 17.3375C19.3245 16.7849 19.784 16.0408 19.9866 15.2114C20.1892 14.3821 20.1246 13.5099 19.8019 12.7195C19.4792 11.9291 18.915 11.2608 18.1898 10.8102L17.4635 10.3575L17.3555 9.50973C17.1873 8.20805 16.5508 7.01218 15.565 6.14561C14.5793 5.27905 13.3117 4.8011 11.9992 4.8011C10.6867 4.8011 9.41906 5.27905 8.43329 6.14561C7.44752 7.01218 6.81104 8.20805 6.64281 9.50973L6.53481 10.3575L5.81031 10.8102C5.08518 11.2608 4.52095 11.9289 4.19823 12.7193C3.8755 13.5096 3.81077 14.3817 4.01329 15.2111C4.2158 16.0404 4.67521 16.7845 5.32588 17.3372C5.97656 17.8898 6.78524 18.2227 7.63641 18.2883L7.79211 18.3H16.2071L16.3628 18.2883ZM12.8996 12.9V16.5H11.0996V12.9H8.39961L11.9996 8.40003L15.5996 12.9H12.8996Z" fill="currentColor"/>
</svg>
