<svg width="24" height="24" viewBox="0 0 24 24" fill="none" xmlns="http://www.w3.org/2000/svg">
<path d="M4.7998 20.9996C4.7998 19.09 5.55837 17.2587 6.90864 15.9084C8.2589 14.5582 10.0902 13.7996 11.9998 13.7996C13.9094 13.7996 15.7407 14.5582 17.091 15.9084C18.4412 17.2587 19.1998 19.09 19.1998 20.9996H17.3998C17.3998 19.5674 16.8309 18.1939 15.8182 17.1812C14.8055 16.1685 13.432 15.5996 11.9998 15.5996C10.5676 15.5996 9.19412 16.1685 8.18143 17.1812C7.16873 18.1939 6.5998 19.5674 6.5998 20.9996H4.7998ZM11.9998 12.8996C9.0163 12.8996 6.5998 10.4831 6.5998 7.49961C6.5998 4.51611 9.0163 2.09961 11.9998 2.09961C14.9833 2.09961 17.3998 4.51611 17.3998 7.49961C17.3998 10.4831 14.9833 12.8996 11.9998 12.8996ZM11.9998 11.0996C13.9888 11.0996 15.5998 9.48861 15.5998 7.49961C15.5998 5.51061 13.9888 3.89961 11.9998 3.89961C10.0108 3.89961 8.3998 5.51061 8.3998 7.49961C8.3998 9.48861 10.0108 11.0996 11.9998 11.0996Z" fill="currentColor"/>
</svg>
